<?xml version="1.0" standalone="no"?><!-- Generator: Gravit.io --><svg xmlns="http://www.w3.org/2000/svg" xmlns:xlink="http://www.w3.org/1999/xlink" style="isolation:isolate" viewBox="0 0 793.701 375" width="793.701" height="375"><defs><clipPath id="_clipPath_mHEBf2zidzggpqURt2LGOsHLBwtsgiPY"><rect width="793.701" height="375"/></clipPath></defs><g clip-path="url(#_clipPath_mHEBf2zidzggpqURt2LGOsHLBwtsgiPY)"><g id="g1208"><g id="text821"><path d=" M 47.75 222.87 L 38.982 222.87 L 27.187 196.043 C 26.839 195.278 26.386 194.234 25.83 192.912 C 25.342 191.59 24.786 190.128 24.159 188.528 C 23.533 186.927 22.872 185.257 22.176 183.517 C 21.48 181.708 20.819 179.899 20.193 178.089 C 20.193 179.899 20.158 181.708 20.088 183.517 C 20.088 185.257 20.054 186.927 19.984 188.528 C 19.914 190.059 19.845 191.45 19.775 192.703 L 19.775 195.521 L 18.731 222.87 L 7.04 222.87 L 11.216 151.993 C 11.216 151.993 18.998 150.992 22.103 157.51 C 23.671 160.801 38.773 196.252 38.773 196.252 C 39.399 197.853 40.095 199.592 40.861 201.471 C 41.696 203.35 42.461 205.194 43.157 207.004 C 43.853 205.194 44.584 203.385 45.349 201.576 C 46.115 199.697 46.845 197.922 47.541 196.252 C 47.541 196.252 61.142 164.301 64.099 157.51 C 66.777 151.357 74.994 151.993 74.994 151.993 L 79.17 222.87 L 67.583 222.87 L 66.435 195.834 C 66.365 194.095 66.261 191.624 66.122 188.423 C 66.052 185.153 65.983 181.847 65.913 178.507 C 65.287 180.246 64.626 181.986 63.93 183.726 C 63.303 185.466 62.712 187.101 62.155 188.632 C 61.598 190.163 61.076 191.555 60.589 192.807 C 60.102 194.06 59.719 195.034 59.441 195.73 L 47.75 222.87 Z " fill="rgb(79,135,146)"/><path d=" M 127.117 152.202 C 127.117 152.202 139.539 151.302 139.539 160.801 C 139.539 183.316 139.539 222.87 139.539 222.87 L 127.117 222.87 L 127.117 152.202 Z " fill="rgb(79,135,146)"/><path d=" M 204.136 152.202 C 204.136 152.202 216.558 151.623 216.558 160.801 C 216.558 176.354 216.558 213.475 216.558 213.475 L 234.551 213.475 C 241.063 214.047 242.967 217.563 242.967 222.87 L 204.136 222.87 L 204.136 152.202 Z " fill="rgb(79,135,146)"/><path d=" M 292.004 152.202 L 333.966 152.202 C 333.966 152.202 334.359 161.597 326.925 161.597 L 304.426 161.597 L 304.426 181.325 L 328.747 181.325 L 327.181 190.824 L 304.426 190.824 L 304.426 213.475 C 304.426 213.475 319.238 213.475 327.821 213.475 C 336.203 213.475 335.532 222.87 335.532 222.87 L 292.004 222.87 L 292.004 152.202 Z " fill="rgb(79,135,146)"/><path d=" M 405.459 151.263 C 407.894 151.263 410.226 151.506 412.453 151.993 C 414.679 152.411 416.697 152.933 418.507 153.559 C 420.386 154.116 421.951 154.707 423.204 155.334 C 424.526 155.96 425.431 156.447 425.918 156.795 C 423.886 162.757 419.641 164.766 415.897 163.371 C 414.043 162.68 412.835 162.188 411.096 161.701 C 409.356 161.214 407.686 160.97 406.085 160.97 C 403.58 160.97 401.388 161.562 399.509 162.745 C 397.7 163.928 396.795 165.772 396.795 168.277 C 396.795 171.409 397.804 173.983 399.822 176.002 C 401.84 177.95 405.007 179.759 409.321 181.43 C 412.105 182.543 414.575 183.726 416.732 184.979 C 418.959 186.162 420.838 187.553 422.369 189.154 C 423.9 190.754 425.048 192.599 425.814 194.686 C 426.649 196.774 427.066 199.279 427.066 202.202 C 427.066 204.846 426.544 207.456 425.501 210.031 C 424.526 212.605 423.03 214.902 421.012 216.92 C 419.064 218.869 416.628 220.469 413.705 221.722 C 410.782 222.905 407.407 223.496 403.58 223.496 C 400.866 223.496 398.291 223.218 395.856 222.661 C 393.42 222.104 391.193 221.478 389.175 220.782 C 387.226 220.017 385.522 219.251 384.06 218.486 C 382.668 217.72 381.625 217.129 380.929 216.711 C 383.096 211.551 387.416 208.357 392.71 210.845 C 394.513 211.692 395.508 212.049 397.526 212.745 C 399.544 213.441 401.283 213.789 402.745 213.789 C 406.433 213.789 409.182 212.884 410.991 211.075 C 412.801 209.265 413.705 206.725 413.705 203.455 C 413.705 201.924 413.462 200.601 412.974 199.488 C 412.487 198.305 411.791 197.296 410.887 196.461 C 409.982 195.626 408.869 194.895 407.547 194.269 C 406.294 193.573 404.867 192.912 403.267 192.285 C 400.135 190.963 397.317 189.641 394.812 188.319 C 392.376 186.997 390.288 185.5 388.549 183.83 C 386.809 182.091 385.487 180.142 384.582 177.985 C 383.677 175.758 383.225 173.114 383.225 170.052 C 383.225 167.477 383.782 165.076 384.895 162.849 C 386.009 160.553 387.54 158.569 389.488 156.899 C 391.437 155.16 393.768 153.803 396.482 152.828 C 399.196 151.784 402.188 151.263 405.459 151.263 L 405.459 151.263 Z " fill="rgb(252,134,20)"/><path d=" M 518.858 152.202 C 518.858 152.202 519.407 161.597 511.256 161.597 L 499.755 161.597 L 499.755 222.87 L 487.438 222.87 L 487.438 161.597 L 469.589 161.597 C 469.589 161.597 468.875 152.202 478.064 152.202 C 491.592 152.202 518.858 152.202 518.858 152.202 L 518.858 152.202 Z " fill="rgb(252,134,20)"/><path d=" M 585.174 151.263 Q 593.003 151.263 598.535 153.768 Q 604.068 156.273 607.617 160.866 Q 611.27 165.459 612.94 172.139 Q 614.611 178.716 614.611 186.962 Q 614.611 195.104 612.732 201.889 Q 610.957 208.569 607.095 213.371 Q 603.337 218.173 597.492 220.887 Q 591.751 223.496 583.817 223.496 Q 575.989 223.496 570.352 221.2 Q 564.82 218.799 561.166 214.31 Q 557.617 209.718 555.947 203.246 Q 554.277 196.774 554.277 188.423 Q 554.277 180.281 556.051 173.496 Q 557.93 166.607 561.688 161.701 Q 565.55 156.691 571.396 153.977 Q 577.241 151.263 585.174 151.263 L 585.174 151.263 Z  M 583.713 160.866 Q 579.12 160.866 576.093 162.954 Q 573.066 164.937 571.187 168.486 Q 569.308 172.035 568.473 176.837 Q 567.742 181.638 567.742 187.275 Q 567.742 192.599 568.473 197.4 Q 569.204 202.202 571.083 205.855 Q 573.066 209.509 576.406 211.701 Q 579.851 213.893 585.279 213.893 Q 589.767 213.893 592.794 211.91 Q 595.926 209.926 597.805 206.482 Q 599.684 203.037 600.414 198.34 Q 601.25 193.538 601.25 188.006 Q 601.25 182.682 600.519 177.776 Q 599.788 172.87 597.805 169.112 Q 595.926 165.354 592.481 163.162 Q 589.141 160.866 583.713 160.866 L 583.713 160.866 Z " fill="rgb(104,79,146)"/><path d=" M 689.333 152.202 L 701.754 152.202 L 701.754 222.974 C 701.754 222.974 692.673 223.939 687.245 215.497 C 680.157 204.472 667.621 185.814 667.621 185.814 C 666.299 183.796 664.837 181.534 663.237 179.029 C 661.706 176.454 660.244 174.088 658.853 171.931 C 659.062 174.157 659.235 176.489 659.374 178.924 C 659.583 181.36 659.688 183.691 659.688 185.918 L 660.001 222.87 L 647.579 222.87 L 647.579 151.993 C 647.579 151.993 656.438 150.815 661.026 157.601 C 667.609 167.338 681.817 188.736 681.817 188.736 C 683.209 190.754 684.601 192.912 685.993 195.208 C 687.454 197.435 688.881 199.592 690.272 201.68 L 689.855 194.999 C 689.715 192.703 689.646 190.754 689.646 189.154 L 689.333 152.202 Z " fill="rgb(104,79,146)"/><path d=" M 743.119 152.202 L 785.082 152.202 C 785.082 152.202 785.475 161.597 778.041 161.597 L 755.541 161.597 L 755.541 181.325 L 779.863 181.325 L 778.297 190.824 L 755.541 190.824 L 755.541 213.475 C 755.541 213.475 770.353 213.475 778.937 213.475 C 787.319 213.475 786.648 222.87 786.648 222.87 L 743.119 222.87 L 743.119 152.202 Z " fill="rgb(104,79,146)"/></g><g id="g892"><path d=" M 214.306 54.416 C 167.367 54.472 126.579 86.68 115.642 132.327 L 143.256 132.327 C 153.44 101.728 182.056 81.073 214.306 81.044 C 246.545 81.086 275.145 101.738 285.325 132.327 L 312.972 132.327 C 302.035 86.68 261.246 54.471 214.306 54.416 Z " fill="rgb(104,79,146)"/><path d=" M 170.563 6.091 C 96.941 6.131 34.245 59.628 22.621 132.327 L 62.604 132.327 C 73.357 83.378 115.677 47.776 165.743 45.559 L 262.631 45.402 L 262.631 6.091 L 170.563 6.091 Z " fill="rgb(79,135,146)"/><path d=" M 262.631 6.091 C 189.008 6.131 126.311 59.628 114.687 132.327 L 154.659 132.327 C 165.773 81.591 210.692 45.422 262.631 45.386 C 314.546 45.452 359.43 81.614 370.539 132.327 L 410.471 132.327 C 398.853 59.667 336.214 6.182 262.631 6.091 L 262.631 6.091 Z " fill="rgb(252,134,20)"/></g><g id="g887"><path d=" M 588.057 320.656 C 541.118 320.6 500.33 288.391 489.393 242.745 L 517.007 242.745 C 527.191 273.344 555.807 293.999 588.057 294.028 C 620.295 293.986 648.895 273.333 659.076 242.745 L 686.723 242.745 C 675.786 288.392 634.996 320.601 588.057 320.656 L 588.057 320.656 Z " fill="rgb(104,79,146)"/><path d=" M 544.313 368.981 C 470.691 368.941 407.996 315.443 396.371 242.745 L 436.354 242.745 C 447.108 291.693 489.427 327.296 539.494 329.513 L 636.381 329.669 L 636.381 368.98 L 544.313 368.981 Z " fill="rgb(79,135,146)"/><path d=" M 636.381 368.98 C 562.759 368.941 500.062 315.444 488.437 242.745 L 528.41 242.745 C 539.524 293.481 584.442 329.65 636.381 329.686 C 688.297 329.62 733.181 293.458 744.29 242.745 L 784.222 242.745 C 772.603 315.405 709.965 368.89 636.381 368.98 L 636.381 368.98 Z " fill="rgb(252,134,20)"/></g></g></g></svg>